<svg height="23.150661" viewBox="0 0 36.355526 23.150664" width="36.355526"
    xmlns="http://www.w3.org/2000/svg">
    <g>
        <!-- Dal logo -->
        <g transform="matrix(0.07828796,0,0,0.07828796,24.046376,18.27685)">
            <path d="m 40.3,-201.45 v 9.55 l -1.424,-1.226 c -7.008,-5.845 -19.163,-3.5 -23.817,4.566 -3.614,6.236 -3.34,15.239 0.6,20.98 a 15.129,15.129 0 0 0 12.483,6.863 c 4.681,0.235 8.295,-0.887 11.142,-3.523 l 1.013,-0.939 v 3.5 h 8.487 V -211 H 40.3 Z m -5.338,13.517 a 10.462,10.462 0 0 1 4.544,3.784 l 0.794,1.174 v 8.846 l -0.849,1.253 a 11.813,11.813 0 0 1 -4.572,3.966 c -1.04,0.444 -1.807,0.548 -4.161,0.574 -2.6,0 -3.011,-0.078 -4.271,-0.7 a 9.5,9.5 0 0 1 -4.247,-4.624 15.893,15.893 0 0 1 -0.274,-8.846 8.426,8.426 0 0 1 5.585,-5.845 11.45,11.45 0 0 1 7.448,0.418 z"
                fill="#ffffff" />
            <path d="m 293,-207.477 v 3.5 l 2.957,0.078 2.929,0.078 0.137,9.916 0.137,9.916 1.369,2.192 c 1.341,2.166 5.338,6.393 6.652,7.045 l 0.6,0.313 V -211 H 293 Z"
                fill="#ffffff"
                transform="translate(-203.7)" />
            <path d="m 171.285,-148.347 v 3.653 l 9.116,0.026 c 10.184,0 10.7,0.078 11.471,1.54 0.493,0.913 0.684,3.392 0.3,3.392 -1.834,0.026 -15.96,1.957 -17.192,2.348 A 9.854,9.854 0 0 0 168,-127.6 c 0.027,6.367 5.01,10.568 12.593,10.568 a 14.922,14.922 0 0 0 10.321,-3.575 c 0.712,-0.6 1.314,-1.122 1.369,-1.122 a 9.205,9.205 0 0 1 0.082,1.827 v 1.827 h 8.514 l -0.082,-13.517 c -0.11,-15.5 -0.027,-15.056 -2.546,-17.431 -2.683,-2.583 -5.092,-2.975 -17.986,-2.975 h -8.979 z m 21.079,17.2 c 0,1.879 -0.082,2.166 -0.876,3.314 a 10.832,10.832 0 0 1 -9.472,4.227 c -2.491,-0.1 -3.915,-0.7 -4.709,-1.9 a 4.188,4.188 0 0 1 0.082,-4.306 c 1.1,-1.566 1.971,-1.853 8.514,-2.74 3.34,-0.47 6.132,-0.783 6.269,-0.731 a 6.55,6.55 0 0 1 0.193,2.132 z"
                fill="#ffffff"
                transform="translate(-112.919,-43.605)" />
            <path d="m 315.272,-86.382 c 0.794,6.993 3.942,12.055 8.979,14.43 a 11.267,11.267 0 0 0 4.846,1.174 c 1.588,0.13 3.093,0.235 3.367,0.261 0.465,0 0.493,0.157 0.329,2.009 -0.192,1.983 -0.192,2.035 0.3,1.618 0.3,-0.235 2.655,-2.088 5.256,-4.149 l 4.736,-3.705 -1.725,-1.748 c -0.931,-0.939 -2.82,-2.818 -4.189,-4.149 l -2.464,-2.427 -0.329,1.9 c -0.164,1.044 -0.328,1.931 -0.328,1.957 -0.082,0.287 -6.488,0 -7.775,-0.313 a 17.518,17.518 0 0 1 -10.127,-7.376 4.614,4.614 0 0 0 -0.9,-1.1 4.148,4.148 0 0 0 0.024,1.618 z"
                fill="#ffffff"
                transform="translate(-219.812,-90.904)" />
        </g>

        <!-- By text -->
        <g fill="#ffffff" fill-rule="evenodd" stroke="#ffffff" stroke-linecap="round"
            stroke-width="0.09617279" transform="matrix(0.09617279,0,0,0.09617279,19.480432,1.3959316)">
            <path
                d="M 46.25,12 H 50.8 L 40,42 Q 38.95,44.85 37.4,46.175 35.85,47.5 33,47.5 h -4.3 v -4 h 4 q 1.35,0 2.125,-0.6 Q 35.6,42.3 36.1,40.95 L 37.4,37.4 27.9,12 h 4.55 l 6.95,19.7 h 0.15 z M 12.6,37.5 H 0 V 0 h 13.3 q 5.15,0 7.95,2.5 2.8,2.5 2.8,6.6 0,2.65 -1.375,4.725 Q 21.3,15.9 18.7,16.9 q 3.3,1.05 5.1,3.5 1.8,2.45 1.8,5.85 0,3.3 -1.525,5.85 -1.525,2.55 -4.45,3.975 Q 16.7,37.5 12.6,37.5 Z M 12.4,19.3 H 4.55 v 14.2 h 7.8 q 4.1,0 6.375,-2.025 Q 21,29.45 21,26.25 21,23.1 18.825,21.2 16.65,19.3 12.4,19.3 Z M 12.9,4 H 4.55 v 11.35 h 8.4 q 3.15,0 4.85,-1.6 1.7,-1.6 1.7,-4.1 0,-2.6 -1.65,-4.125 Q 16.2,4 12.9,4 Z" />
        </g>

        <!-- SLS text -->
        <g fill="#ffffff" fill-rule="evenodd" stroke="#ffffff" stroke-linecap="round"
            stroke-width="0.54463493" transform="matrix(0.54463493,0,0,0.54463493,1.1232217,1.3163752)">
            <path
                d="M 0,29.5 H 4.6 Q 5,31.75 6.725,33.025 8.45,34.3 11.3,34.3 q 2.85,0 4.5,-1.075 1.65,-1.075 1.65,-2.975 0,-1.95 -1.375,-2.875 Q 14.7,26.45 11,26.2 5.4,25.85 3.1,24.125 0.8,22.4 0.8,19 q 0,-3.55 2.7,-5.6 2.7,-2.05 7.4,-2.05 4.7,0 7.375,2.025 Q 20.95,15.4 21.5,19 h -4.55 q -0.95,-3.8 -6.1,-3.8 -2.6,0 -4.1,0.95 -1.5,0.95 -1.5,2.65 0,1.2 0.525,1.9 0.525,0.7 1.875,1.1 1.35,0.4 3.9,0.55 5.7,0.35 8.05,2.175 2.35,1.825 2.35,5.525 0,3.8 -2.825,5.975 Q 16.3,38.2 11.35,38.2 6.3,38.2 3.325,35.85 0.35,33.5 0,29.5 Z m 40.85,0 h 4.6 q 0.4,2.25 2.125,3.525 Q 49.3,34.3 52.15,34.3 55,34.3 56.65,33.225 58.3,32.15 58.3,30.25 58.3,28.3 56.925,27.375 55.55,26.45 51.85,26.2 46.25,25.85 43.95,24.125 41.65,22.4 41.65,19 q 0,-3.55 2.7,-5.6 2.7,-2.05 7.4,-2.05 4.7,0 7.375,2.025 Q 61.8,15.4 62.35,19 H 57.8 q -0.95,-3.8 -6.1,-3.8 -2.6,0 -4.1,0.95 -1.5,0.95 -1.5,2.65 0,1.2 0.525,1.9 0.525,0.7 1.875,1.1 1.35,0.4 3.9,0.55 5.7,0.35 8.05,2.175 2.35,1.825 2.35,5.525 0,3.8 -2.825,5.975 Q 57.15,38.2 52.2,38.2 47.15,38.2 44.175,35.85 41.2,33.5 40.85,29.5 Z m -13.2,1.9 V 4 H 23.4 V 0 h 8.8 v 31 q 0,2.5 2.4,2.5 h 2.75 v 4 H 34.2 Q 31,37.5 29.325,35.875 27.65,34.25 27.65,31.4 Z" />
        </g>

        <!-- White accent bar -->
        <g fill="#ffffff" fill-rule="evenodd" stroke="#ffffff" stroke-linecap="round"
            stroke-width="0.30561187" transform="matrix(0.30561187,0,0,0.67907915,13.848523,1.2832992)">
            <path d="M 15.8,3.25 H 0 V 0 h 15.8 z" />
        </g>
    </g>
</svg>